# xmcd
#
# Track frame offsets:
#	150
#	22157
#	41838
#	57731
#	69991
#	82359
#	93753
#	109524
#	119288
#	136225
#	144089
#	161154
#	173649
#	186456
#	199931
#	212452
#	226797
#	239009
#	253487
#	262861
#
# Disc length: 3661 seconds
#
# Revision: 1
# Processed by: cddbd v1.5.2PL0 Copyright (c) Steve Scherf et al.
# Submitted via: audiograbber 1.83.01
#
DISCID=260e4b14
DTITLE=Vaughn Monroe - Sentimental Gentleman Of Song CD2
DYEAR=1900
DGENRE=Oldies
TTITLE0=Intro/I'll Be Seeing You
TTITLE1=I'll Remember April
TTITLE2=Calypso Joe
TTITLE3=Dream Girl Of Pi Kappa Alpha
TTITLE4=Bamboo
TTITLE5=Old Master Painter
TTITLE6=We Could Make Such Beautiful Music Together
TTITLE7=Over And Over Again
TTITLE8=And So To Bed
TTITLE9=Dark Is The Night
TTITLE10=I've Got You Under My Skin
TTITLE11=Kokomo, Indiana
TTITLE12=Sweetheart Of Sigma Chi
TTITLE13=Someday
TTITLE14=Dreamers' Holiday
TTITLE15=Meanderin'
TTITLE16=Dear Hearts And Gentle People
TTITLE17=Ivy
TTITLE18=You, You, You
TTITLE19=That's Amore
EXTD=
EXTT0=
EXTT1=
EXTT2=
EXTT3=
EXTT4=
EXTT5=
EXTT6=
EXTT7=
EXTT8=
EXTT9=
EXTT10=
EXTT11=
EXTT12=
EXTT13=
EXTT14=
EXTT15=
EXTT16=
EXTT17=
EXTT18=
EXTT19=
PLAYORDER=
